<svg width="512" height="512" viewBox="0 0 512 512" fill="none" xmlns="http://www.w3.org/2000/svg">
  <defs>
    <linearGradient id="bg" x1="64" y1="48" x2="448" y2="464" gradientUnits="userSpaceOnUse">
      <stop stop-color="#091C3B" />
      <stop offset="1" stop-color="#18A0FB" />
    </linearGradient>
    <linearGradient id="accent" x1="132" y1="140" x2="392" y2="376" gradientUnits="userSpaceOnUse">
      <stop stop-color="#7DEBFF" />
      <stop offset="1" stop-color="#FFFFFF" />
    </linearGradient>
  </defs>
  <rect x="40" y="40" width="432" height="432" rx="120" fill="url(#bg)" />
  <path d="M147 182C147 168.193 158.193 157 172 157H340C353.807 157 365 168.193 365 182V212H334V191H178V321H245V352H172C158.193 352 147 340.807 147 327V182Z" fill="url(#accent)" />
  <path d="M267 218C267 204.193 278.193 193 292 193H340C353.807 193 365 204.193 365 218V327C365 340.807 353.807 352 340 352H292C278.193 352 267 340.807 267 327V218ZM298 227V318H334V227H298Z" fill="url(#accent)" />
  <path d="M205 235H282V266H205V235Z" fill="url(#accent)" />
</svg>
